<svg width="24" height="24" viewBox="0 0 24 24" fill="none" xmlns="http://www.w3.org/2000/svg">
<path d="M5.78091 19.25H13.2175C13.782 19.25 14.2262 18.7817 14.1137 18.2285C13.8032 16.7012 12.7889 14 9.49923 14C6.20954 14 5.19528 16.7012 4.88472 18.2285C4.77223 18.7817 5.21641 19.25 5.78091 19.25Z" stroke="#747488" stroke-width="1.5" stroke-linecap="round" stroke-linejoin="round"/>
<path d="M15.75 14C17.8288 14 18.6802 16.1479 19.0239 17.696C19.2095 18.532 18.5333 19.25 17.6769 19.25H16.75" stroke="#747488" stroke-width="1.5" stroke-linecap="round" stroke-linejoin="round"/>
<path d="M9.5 10.25C11.0188 10.25 12.25 9.01878 12.25 7.5C12.25 5.98122 11.0188 4.75 9.5 4.75C7.98122 4.75 6.75 5.98122 6.75 7.5C6.75 9.01878 7.98122 10.25 9.5 10.25Z" stroke="#747488" stroke-width="1.5" stroke-linecap="round" stroke-linejoin="round"/>
<path d="M14.75 10.25C16.2688 10.25 17.25 9.01878 17.25 7.5C17.25 5.98122 16.2688 4.75 14.75 4.75" stroke="#747488" stroke-width="1.5" stroke-linecap="round" stroke-linejoin="round"/>
</svg>
