<svg width="49" height="74" viewBox="0 0 49 74" fill="none" xmlns="http://www.w3.org/2000/svg">
<path d="M14 38.5004H34.9999C37.2091 38.5004 38.9999 36.7096 38.9999 34.5004V19.5005L24.4999 9.50049L10 19.5005V34.5004C10 36.7096 11.7909 38.5004 14 38.5004Z" stroke="#343447" stroke-width="1.5" stroke-linecap="round" stroke-linejoin="round"/>
<path d="M19.999 31.4985C19.999 29.2893 21.79 27.4985 23.999 27.4985H24.999C27.2082 27.4985 28.999 29.2893 28.999 31.4985V38.4985H19.999V31.4985Z" stroke="#343447" stroke-width="1.5" stroke-linecap="round" stroke-linejoin="round"/>
<path d="M4.644 68.112C4.37733 68.112 4.16933 68.0373 4.02 67.888C3.88133 67.7387 3.812 67.5307 3.812 67.264V57.456C3.812 57.1787 3.88133 56.9707 4.02 56.832C4.16933 56.6827 4.37733 56.608 4.644 56.608C4.91067 56.608 5.11333 56.6827 5.252 56.832C5.40133 56.9707 5.476 57.1787 5.476 57.456V61.584H11.796V57.456C11.796 57.1787 11.8653 56.9707 12.004 56.832C12.1533 56.6827 12.3613 56.608 12.628 56.608C12.8947 56.608 13.0973 56.6827 13.236 56.832C13.3747 56.9707 13.444 57.1787 13.444 57.456V67.264C13.444 67.5307 13.3747 67.7387 13.236 67.888C13.0973 68.0373 12.8947 68.112 12.628 68.112C12.3613 68.112 12.1533 68.0373 12.004 67.888C11.8653 67.7387 11.796 67.5307 11.796 67.264V62.976H5.476V67.264C5.476 67.5307 5.40667 67.7387 5.268 67.888C5.12933 68.0373 4.92133 68.112 4.644 68.112ZM19.2936 68.144C18.5043 68.144 17.8216 67.9787 17.2456 67.648C16.6803 67.3173 16.2376 66.848 15.9176 66.24C15.5976 65.632 15.4376 64.9173 15.4376 64.096C15.4376 63.4667 15.5283 62.9067 15.7096 62.416C15.891 61.9253 16.147 61.504 16.4776 61.152C16.819 60.7893 17.2243 60.5173 17.6936 60.336C18.1736 60.144 18.707 60.048 19.2936 60.048C20.0723 60.048 20.7443 60.2133 21.3096 60.544C21.8856 60.8747 22.3336 61.344 22.6536 61.952C22.9736 62.5493 23.1336 63.264 23.1336 64.096C23.1336 64.7147 23.043 65.2747 22.8616 65.776C22.6803 66.2773 22.419 66.704 22.0776 67.056C21.747 67.408 21.3416 67.68 20.8616 67.872C20.3923 68.0533 19.8696 68.144 19.2936 68.144ZM19.2936 66.896C19.731 66.896 20.115 66.7893 20.4456 66.576C20.7763 66.3627 21.0323 66.048 21.2136 65.632C21.4056 65.216 21.5016 64.704 21.5016 64.096C21.5016 63.1787 21.299 62.4853 20.8936 62.016C20.4883 61.5467 19.955 61.312 19.2936 61.312C18.8456 61.312 18.4563 61.4187 18.1256 61.632C17.795 61.8347 17.5336 62.144 17.3416 62.56C17.1603 62.976 17.0696 63.488 17.0696 64.096C17.0696 65.0027 17.2723 65.696 17.6776 66.176C18.083 66.656 18.6216 66.896 19.2936 66.896ZM25.7805 68.112C25.5245 68.112 25.3272 68.0427 25.1885 67.904C25.0498 67.7547 24.9805 67.552 24.9805 67.296V60.896C24.9805 60.6293 25.0498 60.4267 25.1885 60.288C25.3272 60.1493 25.5192 60.08 25.7645 60.08C26.0205 60.08 26.2125 60.1493 26.3405 60.288C26.4792 60.4267 26.5485 60.6293 26.5485 60.896V62.208L26.3725 61.856C26.5858 61.2907 26.9165 60.848 27.3645 60.528C27.8125 60.208 28.3512 60.048 28.9805 60.048C29.6312 60.048 30.1592 60.2027 30.5645 60.512C30.9698 60.8213 31.2472 61.296 31.3965 61.936H31.1725C31.3752 61.3493 31.7218 60.8907 32.2125 60.56C32.7032 60.2187 33.2738 60.048 33.9245 60.048C34.5218 60.048 35.0125 60.1653 35.3965 60.4C35.7805 60.624 36.0685 60.9707 36.2605 61.44C36.4525 61.8987 36.5485 62.48 36.5485 63.184V67.296C36.5485 67.552 36.4738 67.7547 36.3245 67.904C36.1858 68.0427 35.9885 68.112 35.7325 68.112C35.4765 68.112 35.2792 68.0427 35.1405 67.904C35.0018 67.7547 34.9325 67.552 34.9325 67.296V63.264C34.9325 62.6027 34.8152 62.1173 34.5805 61.808C34.3565 61.4987 33.9832 61.344 33.4605 61.344C32.8738 61.344 32.4098 61.5467 32.0685 61.952C31.7272 62.3573 31.5565 62.9173 31.5565 63.632V67.296C31.5565 67.552 31.4872 67.7547 31.3485 67.904C31.2098 68.0427 31.0125 68.112 30.7565 68.112C30.5005 68.112 30.2978 68.0427 30.1485 67.904C30.0098 67.7547 29.9405 67.552 29.9405 67.296V63.264C29.9405 62.6027 29.8285 62.1173 29.6045 61.808C29.3805 61.4987 29.0072 61.344 28.4845 61.344C27.8978 61.344 27.4338 61.5467 27.0925 61.952C26.7618 62.3573 26.5965 62.9173 26.5965 63.632V67.296C26.5965 67.84 26.3245 68.112 25.7805 68.112ZM42.4719 68.144C41.6185 68.144 40.8825 67.984 40.2639 67.664C39.6559 67.3333 39.1812 66.8693 38.8399 66.272C38.5092 65.664 38.3439 64.944 38.3439 64.112C38.3439 63.3013 38.5092 62.592 38.8399 61.984C39.1705 61.376 39.6239 60.9013 40.1999 60.56C40.7759 60.2187 41.4319 60.048 42.1679 60.048C42.7119 60.048 43.1972 60.1387 43.6239 60.32C44.0505 60.4907 44.4132 60.7467 44.7119 61.088C45.0212 61.4187 45.2505 61.824 45.3999 62.304C45.5599 62.784 45.6399 63.3227 45.6399 63.92C45.6399 64.1013 45.5865 64.24 45.4799 64.336C45.3732 64.4213 45.2132 64.464 44.9999 64.464H39.6239V63.472H44.5519L44.2799 63.696C44.2799 63.1627 44.1999 62.7093 44.0399 62.336C43.8905 61.9627 43.6612 61.68 43.3519 61.488C43.0532 61.2853 42.6799 61.184 42.2319 61.184C41.7305 61.184 41.3039 61.3013 40.9519 61.536C40.6105 61.7707 40.3492 62.096 40.1679 62.512C39.9865 62.928 39.8959 63.4133 39.8959 63.968V64.064C39.8959 65.0027 40.1145 65.712 40.5519 66.192C40.9999 66.6613 41.6452 66.896 42.4879 66.896C42.8079 66.896 43.1439 66.8533 43.4959 66.768C43.8585 66.6827 44.1999 66.5387 44.5199 66.336C44.7012 66.2293 44.8612 66.1813 44.9999 66.192C45.1492 66.2027 45.2665 66.2507 45.3519 66.336C45.4479 66.4213 45.5065 66.528 45.5279 66.656C45.5492 66.784 45.5279 66.9173 45.4639 67.056C45.3999 67.184 45.2879 67.3013 45.1279 67.408C44.7652 67.6533 44.3439 67.84 43.8639 67.968C43.3839 68.0853 42.9199 68.144 42.4719 68.144Z" fill="#343447"/>
</svg>

