<svg width="77" height="74" viewBox="0 0 77 74" fill="none" xmlns="http://www.w3.org/2000/svg">
<path d="M30 38.5H47C49.2092 38.5 51 36.7092 51 34.5V18L42.5 9.50003H30C27.7909 9.50003 26 11.2909 26 13.5V34.5C26 36.7092 27.7909 38.5 30 38.5Z" stroke="#343447" stroke-width="1.5" stroke-linecap="round" stroke-linejoin="round"/>
<path d="M50.5 18.5H42V9.99997" stroke="#343447" stroke-width="1.5" stroke-linecap="round" stroke-linejoin="round"/>
<path d="M6.368 68.144C5.22667 68.144 4.25067 67.9093 3.44 67.44C2.62933 66.9707 2.00533 66.304 1.568 65.44C1.14133 64.5653 0.928 63.536 0.928 62.352C0.928 61.4667 1.05067 60.672 1.296 59.968C1.54133 59.2533 1.89333 58.6453 2.352 58.144C2.82133 57.632 3.392 57.2427 4.064 56.976C4.74667 56.7093 5.51467 56.576 6.368 56.576C6.99733 56.576 7.6 56.6613 8.176 56.832C8.76267 57.0027 9.26933 57.248 9.696 57.568C9.87733 57.6853 9.99467 57.8293 10.048 58C10.112 58.16 10.1227 58.3147 10.08 58.464C10.048 58.6133 9.97867 58.7413 9.872 58.848C9.76533 58.944 9.62667 58.9973 9.456 59.008C9.296 59.0187 9.12 58.96 8.928 58.832C8.576 58.5653 8.18667 58.368 7.76 58.24C7.33333 58.112 6.88533 58.048 6.416 58.048C5.60533 58.048 4.92267 58.2187 4.368 58.56C3.81333 58.8907 3.392 59.376 3.104 60.016C2.816 60.656 2.672 61.4347 2.672 62.352C2.672 63.2693 2.816 64.0533 3.104 64.704C3.392 65.344 3.81333 65.8347 4.368 66.176C4.92267 66.5067 5.60533 66.672 6.416 66.672C6.88533 66.672 7.33333 66.608 7.76 66.48C8.19733 66.3413 8.608 66.1387 8.992 65.872C9.184 65.7547 9.35467 65.7013 9.504 65.712C9.664 65.7227 9.79733 65.776 9.904 65.872C10.0107 65.968 10.08 66.0907 10.112 66.24C10.1547 66.3787 10.1493 66.528 10.096 66.688C10.0533 66.8373 9.952 66.9653 9.792 67.072C9.35467 67.424 8.83733 67.6907 8.24 67.872C7.64267 68.0533 7.01867 68.144 6.368 68.144ZM14.778 68.144C13.9887 68.144 13.306 67.9787 12.73 67.648C12.1647 67.3173 11.722 66.848 11.402 66.24C11.082 65.632 10.922 64.9173 10.922 64.096C10.922 63.4667 11.0127 62.9067 11.194 62.416C11.3753 61.9253 11.6313 61.504 11.962 61.152C12.3033 60.7893 12.7087 60.5173 13.178 60.336C13.658 60.144 14.1913 60.048 14.778 60.048C15.5567 60.048 16.2287 60.2133 16.794 60.544C17.37 60.8747 17.818 61.344 18.138 61.952C18.458 62.5493 18.618 63.264 18.618 64.096C18.618 64.7147 18.5273 65.2747 18.346 65.776C18.1647 66.2773 17.9033 66.704 17.562 67.056C17.2313 67.408 16.826 67.68 16.346 67.872C15.8767 68.0533 15.354 68.144 14.778 68.144ZM14.778 66.896C15.2153 66.896 15.5993 66.7893 15.93 66.576C16.2607 66.3627 16.5167 66.048 16.698 65.632C16.89 65.216 16.986 64.704 16.986 64.096C16.986 63.1787 16.7833 62.4853 16.378 62.016C15.9727 61.5467 15.4393 61.312 14.778 61.312C14.33 61.312 13.9407 61.4187 13.61 61.632C13.2793 61.8347 13.018 62.144 12.826 62.56C12.6447 62.976 12.554 63.488 12.554 64.096C12.554 65.0027 12.7567 65.696 13.162 66.176C13.5673 66.656 14.106 66.896 14.778 66.896ZM24.6249 68.144C23.9422 68.144 23.3502 67.9733 22.8489 67.632C22.3475 67.28 22.0115 66.816 21.8409 66.24L22.0169 65.952V67.296C22.0169 67.552 21.9475 67.7547 21.8089 67.904C21.6702 68.0427 21.4782 68.112 21.2329 68.112C20.9769 68.112 20.7795 68.0427 20.6409 67.904C20.5022 67.7547 20.4329 67.552 20.4329 67.296V57.424C20.4329 57.1573 20.5022 56.9547 20.6409 56.816C20.7795 56.6773 20.9769 56.608 21.2329 56.608C21.4889 56.608 21.6862 56.6773 21.8249 56.816C21.9742 56.9547 22.0489 57.1573 22.0489 57.424V61.904H21.8569C22.0275 61.3387 22.3635 60.8907 22.8649 60.56C23.3662 60.2187 23.9529 60.048 24.6249 60.048C25.3289 60.048 25.9369 60.2133 26.4489 60.544C26.9609 60.8747 27.3555 61.3387 27.6329 61.936C27.9209 62.5333 28.0649 63.2533 28.0649 64.096C28.0649 64.9173 27.9209 65.6373 27.6329 66.256C27.3555 66.864 26.9555 67.3333 26.4329 67.664C25.9209 67.984 25.3182 68.144 24.6249 68.144ZM24.2249 66.896C24.6729 66.896 25.0622 66.7893 25.3929 66.576C25.7235 66.3627 25.9795 66.048 26.1609 65.632C26.3422 65.216 26.4329 64.704 26.4329 64.096C26.4329 63.1787 26.2302 62.4853 25.8249 62.016C25.4302 61.5467 24.8969 61.312 24.2249 61.312C23.7875 61.312 23.3982 61.4187 23.0569 61.632C22.7262 61.8347 22.4702 62.144 22.2889 62.56C22.1075 62.976 22.0169 63.488 22.0169 64.096C22.0169 65.0027 22.2195 65.696 22.6249 66.176C23.0302 66.656 23.5635 66.896 24.2249 66.896ZM30.702 68.112C30.4353 68.112 30.2327 68.0427 30.094 67.904C29.9553 67.7547 29.886 67.552 29.886 67.296V60.896C29.886 60.6293 29.9553 60.4267 30.094 60.288C30.2327 60.1493 30.4247 60.08 30.67 60.08C30.926 60.08 31.118 60.1493 31.246 60.288C31.3847 60.4267 31.454 60.6293 31.454 60.896V62.064H31.294C31.4647 61.424 31.7793 60.9387 32.238 60.608C32.6967 60.2773 33.2833 60.0853 33.998 60.032C34.19 60.0213 34.3393 60.0693 34.446 60.176C34.5633 60.2827 34.6273 60.448 34.638 60.672C34.6593 60.896 34.6113 61.0773 34.494 61.216C34.3767 61.344 34.1953 61.4187 33.95 61.44L33.646 61.472C32.9527 61.536 32.4247 61.7547 32.062 62.128C31.6993 62.5013 31.518 63.0133 31.518 63.664V67.296C31.518 67.552 31.4487 67.7547 31.31 67.904C31.182 68.0427 30.9793 68.112 30.702 68.112ZM38.2726 68.144C37.7286 68.144 37.238 68.0373 36.8006 67.824C36.374 67.6107 36.038 67.3227 35.7926 66.96C35.5473 66.5973 35.4246 66.1867 35.4246 65.728C35.4246 65.152 35.5686 64.6987 35.8566 64.368C36.1553 64.0267 36.6406 63.7867 37.3126 63.648C37.9953 63.4987 38.9126 63.424 40.0646 63.424H40.8166V64.416H40.0806C39.3126 64.416 38.7046 64.4533 38.2566 64.528C37.8086 64.6027 37.4886 64.7307 37.2966 64.912C37.1153 65.0827 37.0246 65.3227 37.0246 65.632C37.0246 66.0373 37.1633 66.368 37.4406 66.624C37.718 66.8693 38.102 66.992 38.5926 66.992C38.9873 66.992 39.334 66.9013 39.6326 66.72C39.9313 66.528 40.166 66.272 40.3366 65.952C40.518 65.632 40.6086 65.264 40.6086 64.848V63.008C40.6086 62.4 40.4806 61.9627 40.2246 61.696C39.9686 61.4293 39.5473 61.296 38.9606 61.296C38.6193 61.296 38.262 61.3387 37.8886 61.424C37.526 61.5093 37.1473 61.6533 36.7526 61.856C36.5713 61.9413 36.4166 61.968 36.2886 61.936C36.1606 61.904 36.0593 61.8347 35.9846 61.728C35.91 61.6107 35.8673 61.488 35.8566 61.36C35.8566 61.2213 35.8886 61.088 35.9526 60.96C36.0273 60.832 36.15 60.736 36.3206 60.672C36.79 60.448 37.254 60.288 37.7126 60.192C38.1713 60.096 38.6033 60.048 39.0086 60.048C39.7233 60.048 40.31 60.16 40.7686 60.384C41.238 60.608 41.5846 60.9493 41.8086 61.408C42.0326 61.8667 42.1446 62.4587 42.1446 63.184V67.296C42.1446 67.552 42.0806 67.7547 41.9526 67.904C41.8246 68.0427 41.638 68.112 41.3926 68.112C41.158 68.112 40.9713 68.0427 40.8326 67.904C40.694 67.7547 40.6246 67.552 40.6246 67.296V66.256H40.7686C40.6833 66.6507 40.5233 66.992 40.2886 67.28C40.0646 67.5573 39.782 67.7707 39.4406 67.92C39.0993 68.0693 38.71 68.144 38.2726 68.144ZM45.1704 68.112C44.9144 68.112 44.717 68.0427 44.5784 67.904C44.4397 67.7547 44.3704 67.552 44.3704 67.296V60.896C44.3704 60.6293 44.4397 60.4267 44.5784 60.288C44.717 60.1493 44.909 60.08 45.1544 60.08C45.4104 60.08 45.6024 60.1493 45.7304 60.288C45.869 60.4267 45.9384 60.6293 45.9384 60.896V62.144L45.7624 61.856C45.997 61.2587 46.365 60.8107 46.8664 60.512C47.3677 60.2027 47.9437 60.048 48.5944 60.048C49.213 60.048 49.725 60.1653 50.1304 60.4C50.5464 60.624 50.8557 60.9707 51.0584 61.44C51.261 61.8987 51.3624 62.48 51.3624 63.184V67.296C51.3624 67.552 51.293 67.7547 51.1544 67.904C51.0157 68.0427 50.8184 68.112 50.5624 68.112C50.2957 68.112 50.093 68.0427 49.9544 67.904C49.8157 67.7547 49.7464 67.552 49.7464 67.296V63.28C49.7464 62.608 49.613 62.1173 49.3464 61.808C49.0904 61.4987 48.685 61.344 48.1304 61.344C47.4797 61.344 46.957 61.5467 46.5624 61.952C46.1784 62.3573 45.9864 62.9013 45.9864 63.584V67.296C45.9864 67.84 45.7144 68.112 45.1704 68.112ZM57.0291 68.144C56.2291 68.144 55.5358 67.9787 54.9491 67.648C54.3731 67.3067 53.9251 66.832 53.6051 66.224C53.2851 65.6053 53.1251 64.88 53.1251 64.048C53.1251 63.4293 53.2158 62.8747 53.3971 62.384C53.5785 61.8827 53.8345 61.4613 54.1651 61.12C54.5065 60.7787 54.9171 60.5173 55.3971 60.336C55.8878 60.144 56.4318 60.048 57.0291 60.048C57.4025 60.048 57.7918 60.1067 58.1971 60.224C58.6131 60.3307 58.9971 60.512 59.3491 60.768C59.4878 60.8533 59.5731 60.96 59.6051 61.088C59.6478 61.2053 59.6531 61.328 59.6211 61.456C59.5998 61.584 59.5411 61.696 59.4451 61.792C59.3598 61.8773 59.2531 61.9307 59.1251 61.952C58.9971 61.9627 58.8585 61.9253 58.7091 61.84C58.4531 61.6587 58.1918 61.5307 57.9251 61.456C57.6585 61.3707 57.4025 61.328 57.1571 61.328C56.7731 61.328 56.4318 61.392 56.1331 61.52C55.8451 61.6373 55.5998 61.8133 55.3971 62.048C55.1945 62.272 55.0398 62.5547 54.9331 62.896C54.8371 63.2373 54.7891 63.6267 54.7891 64.064C54.7891 64.9387 54.9918 65.6267 55.3971 66.128C55.8131 66.6187 56.3998 66.864 57.1571 66.864C57.4025 66.864 57.6585 66.8267 57.9251 66.752C58.1918 66.6773 58.4531 66.5493 58.7091 66.368C58.8585 66.2827 58.9971 66.2507 59.1251 66.272C59.2531 66.2933 59.3545 66.352 59.4291 66.448C59.5145 66.5333 59.5678 66.64 59.5891 66.768C59.6211 66.8853 59.6158 67.008 59.5731 67.136C59.5305 67.264 59.4398 67.3707 59.3011 67.456C58.9598 67.7013 58.5865 67.8773 58.1811 67.984C57.7865 68.0907 57.4025 68.144 57.0291 68.144ZM56.9811 71.104C56.7891 71.104 56.5811 71.088 56.3571 71.056C56.1438 71.024 55.9518 70.976 55.7811 70.912C55.6425 70.8587 55.5465 70.7787 55.4931 70.672C55.4505 70.5653 55.4451 70.4587 55.4771 70.352C55.5091 70.2453 55.5731 70.16 55.6691 70.096C55.7758 70.0427 55.8985 70.048 56.0371 70.112C56.1651 70.1547 56.2985 70.1867 56.4371 70.208C56.5758 70.2293 56.7251 70.24 56.8851 70.24C57.1625 70.24 57.3811 70.192 57.5411 70.096C57.7118 70.0107 57.7971 69.8827 57.7971 69.712C57.7971 69.584 57.7491 69.4827 57.6531 69.408C57.5571 69.3333 57.4025 69.296 57.1891 69.296C57.1145 69.296 57.0345 69.296 56.9491 69.296C56.8638 69.3067 56.7731 69.328 56.6771 69.36C56.6025 69.3813 56.5331 69.392 56.4691 69.392C56.4158 69.392 56.3625 69.3707 56.3091 69.328C56.2665 69.2853 56.2398 69.232 56.2291 69.168C56.2185 69.104 56.2185 69.024 56.2291 68.928L56.4211 67.68H57.3491L57.1411 68.896L56.6931 68.752C56.8211 68.72 56.9491 68.6933 57.0771 68.672C57.2051 68.6507 57.3225 68.64 57.4291 68.64C57.8451 68.64 58.1811 68.736 58.4371 68.928C58.6931 69.12 58.8211 69.3973 58.8211 69.76C58.8211 70.1547 58.6505 70.4747 58.3091 70.72C57.9678 70.976 57.5251 71.104 56.9811 71.104ZM63.4914 68.144C62.9474 68.144 62.4567 68.0373 62.0194 67.824C61.5927 67.6107 61.2567 67.3227 61.0114 66.96C60.766 66.5973 60.6434 66.1867 60.6434 65.728C60.6434 65.152 60.7874 64.6987 61.0754 64.368C61.374 64.0267 61.8594 63.7867 62.5314 63.648C63.214 63.4987 64.1314 63.424 65.2834 63.424H66.0354V64.416H65.2994C64.5314 64.416 63.9234 64.4533 63.4754 64.528C63.0274 64.6027 62.7074 64.7307 62.5154 64.912C62.334 65.0827 62.2434 65.3227 62.2434 65.632C62.2434 66.0373 62.382 66.368 62.6594 66.624C62.9367 66.8693 63.3207 66.992 63.8114 66.992C64.206 66.992 64.5527 66.9013 64.8514 66.72C65.15 66.528 65.3847 66.272 65.5554 65.952C65.7367 65.632 65.8274 65.264 65.8274 64.848V63.008C65.8274 62.4 65.6994 61.9627 65.4434 61.696C65.1874 61.4293 64.766 61.296 64.1794 61.296C63.838 61.296 63.4807 61.3387 63.1074 61.424C62.7447 61.5093 62.366 61.6533 61.9714 61.856C61.79 61.9413 61.6354 61.968 61.5074 61.936C61.3794 61.904 61.278 61.8347 61.2034 61.728C61.1287 61.6107 61.086 61.488 61.0754 61.36C61.0754 61.2213 61.1074 61.088 61.1714 60.96C61.246 60.832 61.3687 60.736 61.5394 60.672C62.0087 60.448 62.4727 60.288 62.9314 60.192C63.39 60.096 63.822 60.048 64.2274 60.048C64.942 60.048 65.5287 60.16 65.9874 60.384C66.4567 60.608 66.8034 60.9493 67.0274 61.408C67.2514 61.8667 67.3634 62.4587 67.3634 63.184V67.296C67.3634 67.552 67.2994 67.7547 67.1714 67.904C67.0434 68.0427 66.8567 68.112 66.6114 68.112C66.3767 68.112 66.19 68.0427 66.0514 67.904C65.9127 67.7547 65.8434 67.552 65.8434 67.296V66.256H65.9874C65.902 66.6507 65.742 66.992 65.5074 67.28C65.2834 67.5573 65.0007 67.7707 64.6594 67.92C64.318 68.0693 63.9287 68.144 63.4914 68.144ZM72.3251 68.144C71.8558 68.144 71.3705 68.0907 70.8691 67.984C70.3785 67.8773 69.9251 67.696 69.5091 67.44C69.3705 67.344 69.2745 67.2373 69.2211 67.12C69.1678 67.0027 69.1465 66.8853 69.1571 66.768C69.1785 66.64 69.2265 66.5333 69.3011 66.448C69.3865 66.352 69.4878 66.2933 69.6051 66.272C69.7331 66.2507 69.8665 66.2773 70.0051 66.352C70.4211 66.5867 70.8211 66.752 71.2051 66.848C71.5891 66.9333 71.9678 66.976 72.3411 66.976C72.9065 66.976 73.3331 66.8747 73.6211 66.672C73.9091 66.4693 74.0531 66.1973 74.0531 65.856C74.0531 65.5787 73.9571 65.3653 73.7651 65.216C73.5731 65.056 73.2851 64.9333 72.9011 64.848L71.3811 64.544C70.7198 64.4053 70.2185 64.16 69.8771 63.808C69.5358 63.456 69.3651 63.008 69.3651 62.464C69.3651 61.9733 69.4985 61.5467 69.7651 61.184C70.0318 60.8213 70.4051 60.544 70.8851 60.352C71.3651 60.1493 71.9198 60.048 72.5491 60.048C73.0185 60.048 73.4611 60.1067 73.8771 60.224C74.2931 60.3413 74.6771 60.5173 75.0291 60.752C75.1678 60.8267 75.2585 60.928 75.3011 61.056C75.3438 61.1733 75.3491 61.2907 75.3171 61.408C75.2958 61.5253 75.2425 61.632 75.1571 61.728C75.0718 61.8133 74.9651 61.8667 74.8371 61.888C74.7198 61.8987 74.5865 61.8667 74.4371 61.792C74.1171 61.5893 73.7971 61.4453 73.4771 61.36C73.1678 61.2747 72.8585 61.232 72.5491 61.232C71.9838 61.232 71.5571 61.3387 71.2691 61.552C70.9918 61.7547 70.8531 62.032 70.8531 62.384C70.8531 62.6507 70.9385 62.8693 71.1091 63.04C71.2798 63.2107 71.5465 63.3333 71.9091 63.408L73.4291 63.712C74.1225 63.8507 74.6451 64.0853 74.9971 64.416C75.3598 64.7467 75.5411 65.1947 75.5411 65.76C75.5411 66.496 75.2478 67.0773 74.6611 67.504C74.0745 67.9307 73.2958 68.144 72.3251 68.144Z" fill="#343447"/>
</svg>
