<svg width="24" height="24" viewBox="0 0 24 24" fill="none" xmlns="http://www.w3.org/2000/svg">
<g clip-path="url(#clip0_82918_4576)">
<path d="M1.4541 4.86963H5.09047" stroke="#DA0175" stroke-width="1.5" stroke-linecap="round" stroke-linejoin="round"/>
<path d="M1.4541 19.478H5.09047" stroke="#DA0175" stroke-width="1.5" stroke-linecap="round" stroke-linejoin="round"/>
<path d="M13.0908 4.86963H22.5454" stroke="#DA0175" stroke-width="1.5" stroke-linecap="round" stroke-linejoin="round"/>
<path d="M13.0908 19.478H22.5454" stroke="#DA0175" stroke-width="1.5" stroke-linecap="round" stroke-linejoin="round"/>
<path d="M1.4541 12.1738H12.3632" stroke="#DA0175" stroke-width="1.5" stroke-linecap="round" stroke-linejoin="round"/>
<path d="M20.3633 12.1738H22.5451" stroke="#DA0175" stroke-width="1.5" stroke-linecap="round" stroke-linejoin="round"/>
<path d="M9.09109 7.99964C10.8986 7.99964 12.3638 6.5981 12.3638 4.8692C12.3638 3.14031 10.8986 1.73877 9.09109 1.73877C7.28361 1.73877 5.81836 3.14031 5.81836 4.8692C5.81836 6.5981 7.28361 7.99964 9.09109 7.99964Z" stroke="#DA0175" stroke-width="1.5" stroke-linecap="round" stroke-linejoin="round"/>
<path d="M9.09109 22.6085C10.8986 22.6085 12.3638 21.207 12.3638 19.4781C12.3638 17.7492 10.8986 16.3477 9.09109 16.3477C7.28361 16.3477 5.81836 17.7492 5.81836 19.4781C5.81836 21.207 7.28361 22.6085 9.09109 22.6085Z" stroke="#DA0175" stroke-width="1.5" stroke-linecap="round" stroke-linejoin="round"/>
<path d="M16.3635 15.3043C18.171 15.3043 19.6363 13.9028 19.6363 12.1739C19.6363 10.445 18.171 9.04346 16.3635 9.04346C14.5561 9.04346 13.0908 10.445 13.0908 12.1739C13.0908 13.9028 14.5561 15.3043 16.3635 15.3043Z" stroke="#DA0175" stroke-width="1.5" stroke-linecap="round" stroke-linejoin="round"/>
</g>
<defs>
<clipPath id="clip0_82918_4576">
<rect width="24" height="24" fill="white"/>
</clipPath>
</defs>
</svg>
