<svg width="61" height="74" viewBox="0 0 61 74" fill="none" xmlns="http://www.w3.org/2000/svg">
<path d="M18.0638 38.5H32.937C34.066 38.5 34.9544 37.5634 34.7294 36.457C34.1084 33.4024 32.0798 28 25.5004 28C18.921 28 16.8925 33.4024 16.2714 36.457C16.0464 37.5634 16.9348 38.5 18.0638 38.5Z" stroke="#343447" stroke-width="1.5" stroke-linecap="round" stroke-linejoin="round"/>
<path d="M38 28C42.1576 28 43.8604 32.2958 44.5478 35.392C44.919 37.064 43.5666 38.5 41.8538 38.5H40" stroke="#343447" stroke-width="1.5" stroke-linecap="round" stroke-linejoin="round"/>
<path d="M25.5 20.5C28.5376 20.5 31 18.0376 31 15C31 11.9624 28.5376 9.5 25.5 9.5C22.4624 9.5 20 11.9624 20 15C20 18.0376 22.4624 20.5 25.5 20.5Z" stroke="#343447" stroke-width="1.5" stroke-linecap="round" stroke-linejoin="round"/>
<path d="M36 20.5C39.0376 20.5 41 18.0376 41 15C41 11.9624 39.0376 9.5 36 9.5" stroke="#343447" stroke-width="1.5" stroke-linecap="round" stroke-linejoin="round"/>
<path d="M6.868 68.144C5.72667 68.144 4.75067 67.9093 3.94 67.44C3.12933 66.9707 2.50533 66.304 2.068 65.44C1.64133 64.5653 1.428 63.536 1.428 62.352C1.428 61.4667 1.55067 60.672 1.796 59.968C2.04133 59.2533 2.39333 58.6453 2.852 58.144C3.32133 57.632 3.892 57.2427 4.564 56.976C5.24667 56.7093 6.01467 56.576 6.868 56.576C7.49733 56.576 8.1 56.6613 8.676 56.832C9.26267 57.0027 9.76933 57.248 10.196 57.568C10.3773 57.6853 10.4947 57.8293 10.548 58C10.612 58.16 10.6227 58.3147 10.58 58.464C10.548 58.6133 10.4787 58.7413 10.372 58.848C10.2653 58.944 10.1267 58.9973 9.956 59.008C9.796 59.0187 9.62 58.96 9.428 58.832C9.076 58.5653 8.68667 58.368 8.26 58.24C7.83333 58.112 7.38533 58.048 6.916 58.048C6.10533 58.048 5.42267 58.2187 4.868 58.56C4.31333 58.8907 3.892 59.376 3.604 60.016C3.316 60.656 3.172 61.4347 3.172 62.352C3.172 63.2693 3.316 64.0533 3.604 64.704C3.892 65.344 4.31333 65.8347 4.868 66.176C5.42267 66.5067 6.10533 66.672 6.916 66.672C7.38533 66.672 7.83333 66.608 8.26 66.48C8.69733 66.3413 9.108 66.1387 9.492 65.872C9.684 65.7547 9.85467 65.7013 10.004 65.712C10.164 65.7227 10.2973 65.776 10.404 65.872C10.5107 65.968 10.58 66.0907 10.612 66.24C10.6547 66.3787 10.6493 66.528 10.596 66.688C10.5533 66.8373 10.452 66.9653 10.292 67.072C9.85467 67.424 9.33733 67.6907 8.74 67.872C8.14267 68.0533 7.51867 68.144 6.868 68.144ZM14.9605 68.144C14.1285 68.144 13.4992 67.904 13.0725 67.424C12.6565 66.9333 12.4485 66.2293 12.4485 65.312V57.424C12.4485 57.1573 12.5178 56.9547 12.6565 56.816C12.7952 56.6773 12.9925 56.608 13.2485 56.608C13.5045 56.608 13.7018 56.6773 13.8405 56.816C13.9898 56.9547 14.0645 57.1573 14.0645 57.424V65.216C14.0645 65.7493 14.1712 66.1493 14.3845 66.416C14.6085 66.672 14.9285 66.8 15.3445 66.8C15.4405 66.8 15.5258 66.8 15.6005 66.8C15.6752 66.7893 15.7498 66.7787 15.8245 66.768C15.9525 66.7573 16.0432 66.7947 16.0965 66.88C16.1498 66.9547 16.1765 67.1147 16.1765 67.36C16.1765 67.584 16.1285 67.76 16.0325 67.888C15.9365 68.0053 15.7818 68.08 15.5685 68.112C15.4725 68.1227 15.3712 68.128 15.2645 68.128C15.1578 68.1387 15.0565 68.144 14.9605 68.144ZM18.1391 68.096C17.8831 68.096 17.6858 68.0213 17.5471 67.872C17.4085 67.712 17.3391 67.4933 17.3391 67.216V60.976C17.3391 60.6987 17.4085 60.4853 17.5471 60.336C17.6858 60.1867 17.8831 60.112 18.1391 60.112C18.3951 60.112 18.5925 60.1867 18.7311 60.336C18.8805 60.4853 18.9551 60.6987 18.9551 60.976V67.216C18.9551 67.4933 18.8858 67.712 18.7471 67.872C18.6085 68.0213 18.4058 68.096 18.1391 68.096ZM18.1391 58.448C17.8191 58.448 17.5685 58.368 17.3871 58.208C17.2165 58.048 17.1311 57.824 17.1311 57.536C17.1311 57.2373 17.2165 57.0133 17.3871 56.864C17.5685 56.704 17.8191 56.624 18.1391 56.624C18.4591 56.624 18.7045 56.704 18.8751 56.864C19.0565 57.0133 19.1471 57.2373 19.1471 57.536C19.1471 57.824 19.0565 58.048 18.8751 58.208C18.7045 58.368 18.4591 58.448 18.1391 58.448ZM24.8938 68.144C24.0404 68.144 23.3044 67.984 22.6858 67.664C22.0778 67.3333 21.6031 66.8693 21.2618 66.272C20.9311 65.664 20.7658 64.944 20.7658 64.112C20.7658 63.3013 20.9311 62.592 21.2618 61.984C21.5924 61.376 22.0458 60.9013 22.6218 60.56C23.1978 60.2187 23.8538 60.048 24.5898 60.048C25.1338 60.048 25.6191 60.1387 26.0458 60.32C26.4724 60.4907 26.8351 60.7467 27.1338 61.088C27.4431 61.4187 27.6724 61.824 27.8218 62.304C27.9818 62.784 28.0618 63.3227 28.0618 63.92C28.0618 64.1013 28.0084 64.24 27.9018 64.336C27.7951 64.4213 27.6351 64.464 27.4218 64.464H22.0458V63.472H26.9738L26.7018 63.696C26.7018 63.1627 26.6218 62.7093 26.4618 62.336C26.3124 61.9627 26.0831 61.68 25.7738 61.488C25.4751 61.2853 25.1018 61.184 24.6538 61.184C24.1524 61.184 23.7258 61.3013 23.3738 61.536C23.0324 61.7707 22.7711 62.096 22.5898 62.512C22.4084 62.928 22.3178 63.4133 22.3178 63.968V64.064C22.3178 65.0027 22.5364 65.712 22.9738 66.192C23.4218 66.6613 24.0671 66.896 24.9098 66.896C25.2298 66.896 25.5658 66.8533 25.9178 66.768C26.2804 66.6827 26.6218 66.5387 26.9418 66.336C27.1231 66.2293 27.2831 66.1813 27.4218 66.192C27.5711 66.2027 27.6884 66.2507 27.7738 66.336C27.8698 66.4213 27.9284 66.528 27.9498 66.656C27.9711 66.784 27.9498 66.9173 27.8858 67.056C27.8218 67.184 27.7098 67.3013 27.5498 67.408C27.1871 67.6533 26.7658 67.84 26.2858 67.968C25.8058 68.0853 25.3418 68.144 24.8938 68.144ZM30.6235 68.112C30.3675 68.112 30.1702 68.0427 30.0315 67.904C29.8928 67.7547 29.8235 67.552 29.8235 67.296V60.896C29.8235 60.6293 29.8928 60.4267 30.0315 60.288C30.1702 60.1493 30.3622 60.08 30.6075 60.08C30.8635 60.08 31.0555 60.1493 31.1835 60.288C31.3222 60.4267 31.3915 60.6293 31.3915 60.896V62.144L31.2155 61.856C31.4502 61.2587 31.8182 60.8107 32.3195 60.512C32.8208 60.2027 33.3968 60.048 34.0475 60.048C34.6662 60.048 35.1782 60.1653 35.5835 60.4C35.9995 60.624 36.3088 60.9707 36.5115 61.44C36.7142 61.8987 36.8155 62.48 36.8155 63.184V67.296C36.8155 67.552 36.7462 67.7547 36.6075 67.904C36.4688 68.0427 36.2715 68.112 36.0155 68.112C35.7488 68.112 35.5462 68.0427 35.4075 67.904C35.2688 67.7547 35.1995 67.552 35.1995 67.296V63.28C35.1995 62.608 35.0662 62.1173 34.7995 61.808C34.5435 61.4987 34.1382 61.344 33.5835 61.344C32.9328 61.344 32.4102 61.5467 32.0155 61.952C31.6315 62.3573 31.4395 62.9013 31.4395 63.584V67.296C31.4395 67.84 31.1675 68.112 30.6235 68.112ZM42.3703 68.144C41.7303 68.144 41.1916 68.032 40.7543 67.808C40.3169 67.584 39.9916 67.2533 39.7783 66.816C39.5649 66.3787 39.4583 65.8453 39.4583 65.216V61.44H38.4983C38.2849 61.44 38.1196 61.3867 38.0023 61.28C37.8849 61.1627 37.8262 61.008 37.8262 60.816C37.8262 60.6133 37.8849 60.4587 38.0023 60.352C38.1196 60.2453 38.2849 60.192 38.4983 60.192H39.4583V58.544C39.4583 58.2773 39.5276 58.0747 39.6663 57.936C39.8156 57.7973 40.0183 57.728 40.2743 57.728C40.5303 57.728 40.7276 57.7973 40.8663 57.936C41.0049 58.0747 41.0743 58.2773 41.0743 58.544V60.192H42.9463C43.1596 60.192 43.3249 60.2453 43.4423 60.352C43.5596 60.4587 43.6183 60.6133 43.6183 60.816C43.6183 61.008 43.5596 61.1627 43.4423 61.28C43.3249 61.3867 43.1596 61.44 42.9463 61.44H41.0743V65.088C41.0743 65.6533 41.1916 66.08 41.4263 66.368C41.6716 66.656 42.0663 66.8 42.6102 66.8C42.8023 66.8 42.9676 66.784 43.1063 66.752C43.2556 66.7093 43.3783 66.6827 43.4743 66.672C43.5916 66.672 43.6876 66.7147 43.7623 66.8C43.8369 66.8747 43.8743 67.024 43.8743 67.248C43.8743 67.408 43.8423 67.5573 43.7783 67.696C43.7249 67.8347 43.6236 67.9253 43.4743 67.968C43.3463 68.0107 43.1703 68.048 42.9463 68.08C42.7329 68.1227 42.5409 68.144 42.3703 68.144ZM48.4719 68.144C47.6185 68.144 46.8825 67.984 46.2639 67.664C45.6559 67.3333 45.1812 66.8693 44.8399 66.272C44.5092 65.664 44.3439 64.944 44.3439 64.112C44.3439 63.3013 44.5092 62.592 44.8399 61.984C45.1705 61.376 45.6239 60.9013 46.1999 60.56C46.7759 60.2187 47.4319 60.048 48.1679 60.048C48.7119 60.048 49.1972 60.1387 49.6239 60.32C50.0505 60.4907 50.4132 60.7467 50.7119 61.088C51.0212 61.4187 51.2505 61.824 51.3999 62.304C51.5599 62.784 51.6399 63.3227 51.6399 63.92C51.6399 64.1013 51.5865 64.24 51.4799 64.336C51.3732 64.4213 51.2132 64.464 50.9999 64.464H45.6239V63.472H50.5519L50.2799 63.696C50.2799 63.1627 50.1999 62.7093 50.0399 62.336C49.8905 61.9627 49.6612 61.68 49.3519 61.488C49.0532 61.2853 48.6799 61.184 48.2319 61.184C47.7305 61.184 47.3039 61.3013 46.9519 61.536C46.6105 61.7707 46.3492 62.096 46.1679 62.512C45.9865 62.928 45.8959 63.4133 45.8959 63.968V64.064C45.8959 65.0027 46.1145 65.712 46.5519 66.192C46.9999 66.6613 47.6452 66.896 48.4879 66.896C48.8079 66.896 49.1439 66.8533 49.4959 66.768C49.8585 66.6827 50.1999 66.5387 50.5199 66.336C50.7012 66.2293 50.8612 66.1813 50.9999 66.192C51.1492 66.2027 51.2665 66.2507 51.3519 66.336C51.4479 66.4213 51.5065 66.528 51.5279 66.656C51.5492 66.784 51.5279 66.9173 51.4639 67.056C51.3999 67.184 51.2879 67.3013 51.1279 67.408C50.7652 67.6533 50.3439 67.84 49.8639 67.968C49.3839 68.0853 48.9199 68.144 48.4719 68.144ZM56.1376 68.144C55.6683 68.144 55.183 68.0907 54.6816 67.984C54.191 67.8773 53.7376 67.696 53.3216 67.44C53.183 67.344 53.087 67.2373 53.0336 67.12C52.9803 67.0027 52.959 66.8853 52.9696 66.768C52.991 66.64 53.039 66.5333 53.1136 66.448C53.199 66.352 53.3003 66.2933 53.4176 66.272C53.5456 66.2507 53.679 66.2773 53.8176 66.352C54.2336 66.5867 54.6336 66.752 55.0176 66.848C55.4016 66.9333 55.7803 66.976 56.1536 66.976C56.719 66.976 57.1456 66.8747 57.4336 66.672C57.7216 66.4693 57.8656 66.1973 57.8656 65.856C57.8656 65.5787 57.7696 65.3653 57.5776 65.216C57.3856 65.056 57.0976 64.9333 56.7136 64.848L55.1936 64.544C54.5323 64.4053 54.031 64.16 53.6896 63.808C53.3483 63.456 53.1776 63.008 53.1776 62.464C53.1776 61.9733 53.311 61.5467 53.5776 61.184C53.8443 60.8213 54.2176 60.544 54.6976 60.352C55.1776 60.1493 55.7323 60.048 56.3616 60.048C56.831 60.048 57.2736 60.1067 57.6896 60.224C58.1056 60.3413 58.4896 60.5173 58.8416 60.752C58.9803 60.8267 59.071 60.928 59.1136 61.056C59.1563 61.1733 59.1616 61.2907 59.1296 61.408C59.1083 61.5253 59.055 61.632 58.9696 61.728C58.8843 61.8133 58.7776 61.8667 58.6496 61.888C58.5323 61.8987 58.399 61.8667 58.2496 61.792C57.9296 61.5893 57.6096 61.4453 57.2896 61.36C56.9803 61.2747 56.671 61.232 56.3616 61.232C55.7963 61.232 55.3696 61.3387 55.0816 61.552C54.8043 61.7547 54.6656 62.032 54.6656 62.384C54.6656 62.6507 54.751 62.8693 54.9216 63.04C55.0923 63.2107 55.359 63.3333 55.7216 63.408L57.2416 63.712C57.935 63.8507 58.4576 64.0853 58.8096 64.416C59.1723 64.7467 59.3536 65.1947 59.3536 65.76C59.3536 66.496 59.0603 67.0773 58.4736 67.504C57.887 67.9307 57.1083 68.144 56.1376 68.144Z" fill="#343447"/>
</svg>
