<svg width="35" height="39" viewBox="0 0 35 39" fill="none" xmlns="http://www.w3.org/2000/svg">
<path d="M16.75 20.2988H13.25C12.1454 20.2988 11.25 19.4034 11.25 18.2988V7.79883C11.25 6.69426 12.1454 5.79883 13.25 5.79883H19.5L23.75 10.0488V12.2988" stroke="#DA0175" stroke-width="1.5" stroke-linecap="round" stroke-linejoin="round"/>
<path d="M22.5 15.7988V20.2988" stroke="#DA0175" stroke-width="1.5" stroke-linecap="round" stroke-linejoin="round"/>
<path d="M24.75 18.0488H20.25" stroke="#DA0175" stroke-width="1.5" stroke-linecap="round" stroke-linejoin="round"/>
<path d="M23.5 10.2988H19.25V6.04883" stroke="#DA0175" stroke-width="1.5" stroke-linecap="round" stroke-linejoin="round"/>
<path d="M3.184 33.1208C2.61333 33.1208 2.12533 33.0035 1.72 32.7688C1.31467 32.5342 1.00267 32.2008 0.784 31.7688C0.570667 31.3315 0.464 30.8168 0.464 30.2248C0.464 29.7822 0.525333 29.3848 0.648 29.0328C0.770667 28.6755 0.946667 28.3715 1.176 28.1208C1.41067 27.8648 1.696 27.6702 2.032 27.5368C2.37333 27.4035 2.75733 27.3368 3.184 27.3368C3.49867 27.3368 3.8 27.3795 4.088 27.4648C4.38133 27.5502 4.63467 27.6728 4.848 27.8328C4.93867 27.8915 4.99733 27.9635 5.024 28.0488C5.056 28.1288 5.06133 28.2062 5.04 28.2808C5.024 28.3555 4.98933 28.4195 4.936 28.4728C4.88267 28.5208 4.81333 28.5475 4.728 28.5528C4.648 28.5582 4.56 28.5288 4.464 28.4648C4.288 28.3315 4.09333 28.2328 3.88 28.1688C3.66667 28.1048 3.44267 28.0728 3.208 28.0728C2.80267 28.0728 2.46133 28.1582 2.184 28.3288C1.90667 28.4942 1.696 28.7368 1.552 29.0568C1.408 29.3768 1.336 29.7662 1.336 30.2248C1.336 30.6835 1.408 31.0755 1.552 31.4008C1.696 31.7208 1.90667 31.9662 2.184 32.1368C2.46133 32.3022 2.80267 32.3848 3.208 32.3848C3.44267 32.3848 3.66667 32.3528 3.88 32.2888C4.09867 32.2195 4.304 32.1182 4.496 31.9848C4.592 31.9262 4.67733 31.8995 4.752 31.9048C4.832 31.9102 4.89867 31.9368 4.952 31.9848C5.00533 32.0328 5.04 32.0942 5.056 32.1688C5.07733 32.2382 5.07467 32.3128 5.048 32.3928C5.02667 32.4675 4.976 32.5315 4.896 32.5848C4.67733 32.7608 4.41867 32.8942 4.12 32.9848C3.82133 33.0755 3.50933 33.1208 3.184 33.1208ZM7.389 33.1208C6.99433 33.1208 6.653 33.0382 6.365 32.8728C6.08233 32.7075 5.861 32.4728 5.701 32.1688C5.541 31.8648 5.461 31.5075 5.461 31.0968C5.461 30.7822 5.50633 30.5022 5.597 30.2568C5.68767 30.0115 5.81567 29.8008 5.981 29.6248C6.15167 29.4435 6.35433 29.3075 6.589 29.2168C6.829 29.1208 7.09567 29.0728 7.389 29.0728C7.77833 29.0728 8.11433 29.1555 8.397 29.3208C8.685 29.4862 8.909 29.7208 9.069 30.0248C9.229 30.3235 9.309 30.6808 9.309 31.0968C9.309 31.4062 9.26367 31.6862 9.173 31.9368C9.08233 32.1875 8.95167 32.4008 8.781 32.5768C8.61567 32.7528 8.413 32.8888 8.173 32.9848C7.93833 33.0755 7.677 33.1208 7.389 33.1208ZM7.389 32.4968C7.60767 32.4968 7.79967 32.4435 7.965 32.3368C8.13033 32.2302 8.25833 32.0728 8.349 31.8648C8.445 31.6568 8.493 31.4008 8.493 31.0968C8.493 30.6382 8.39167 30.2915 8.189 30.0568C7.98633 29.8222 7.71967 29.7048 7.389 29.7048C7.165 29.7048 6.97033 29.7582 6.805 29.8648C6.63967 29.9662 6.509 30.1208 6.413 30.3288C6.32233 30.5368 6.277 30.7928 6.277 31.0968C6.277 31.5502 6.37833 31.8968 6.581 32.1368C6.78367 32.3768 7.053 32.4968 7.389 32.4968ZM12.3124 33.1208C11.9711 33.1208 11.6751 33.0355 11.4244 32.8648C11.1738 32.6888 11.0058 32.4568 10.9204 32.1688L11.0084 32.0248V32.6968C11.0084 32.8248 10.9738 32.9262 10.9044 33.0008C10.8351 33.0702 10.7391 33.1048 10.6164 33.1048C10.4884 33.1048 10.3898 33.0702 10.3204 33.0008C10.2511 32.9262 10.2164 32.8248 10.2164 32.6968V27.7608C10.2164 27.6275 10.2511 27.5262 10.3204 27.4568C10.3898 27.3875 10.4884 27.3528 10.6164 27.3528C10.7444 27.3528 10.8431 27.3875 10.9124 27.4568C10.9871 27.5262 11.0244 27.6275 11.0244 27.7608V30.0008H10.9284C11.0138 29.7182 11.1818 29.4942 11.4324 29.3288C11.6831 29.1582 11.9764 29.0728 12.3124 29.0728C12.6644 29.0728 12.9684 29.1555 13.2244 29.3208C13.4804 29.4862 13.6778 29.7182 13.8164 30.0168C13.9604 30.3155 14.0324 30.6755 14.0324 31.0968C14.0324 31.5075 13.9604 31.8675 13.8164 32.1768C13.6778 32.4808 13.4778 32.7155 13.2164 32.8808C12.9604 33.0408 12.6591 33.1208 12.3124 33.1208ZM12.1124 32.4968C12.3364 32.4968 12.5311 32.4435 12.6964 32.3368C12.8618 32.2302 12.9898 32.0728 13.0804 31.8648C13.1711 31.6568 13.2164 31.4008 13.2164 31.0968C13.2164 30.6382 13.1151 30.2915 12.9124 30.0568C12.7151 29.8222 12.4484 29.7048 12.1124 29.7048C11.8938 29.7048 11.6991 29.7582 11.5284 29.8648C11.3631 29.9662 11.2351 30.1208 11.1444 30.3288C11.0538 30.5368 11.0084 30.7928 11.0084 31.0968C11.0084 31.5502 11.1098 31.8968 11.3124 32.1368C11.5151 32.3768 11.7818 32.4968 12.1124 32.4968ZM15.351 33.1048C15.2177 33.1048 15.1163 33.0702 15.047 33.0008C14.9777 32.9262 14.943 32.8248 14.943 32.6968V29.4968C14.943 29.3635 14.9777 29.2622 15.047 29.1928C15.1163 29.1235 15.2123 29.0888 15.335 29.0888C15.463 29.0888 15.559 29.1235 15.623 29.1928C15.6923 29.2622 15.727 29.3635 15.727 29.4968V30.0808H15.647C15.7323 29.7608 15.8897 29.5182 16.119 29.3528C16.3483 29.1875 16.6417 29.0915 16.999 29.0648C17.095 29.0595 17.1697 29.0835 17.223 29.1368C17.2817 29.1902 17.3137 29.2728 17.319 29.3848C17.3297 29.4968 17.3057 29.5875 17.247 29.6568C17.1883 29.7208 17.0977 29.7582 16.975 29.7688L16.823 29.7848C16.4763 29.8168 16.2123 29.9262 16.031 30.1128C15.8497 30.2995 15.759 30.5555 15.759 30.8808V32.6968C15.759 32.8248 15.7243 32.9262 15.655 33.0008C15.591 33.0702 15.4897 33.1048 15.351 33.1048ZM19.1363 33.1208C18.8643 33.1208 18.619 33.0675 18.4003 32.9608C18.187 32.8542 18.019 32.7102 17.8963 32.5288C17.7736 32.3475 17.7123 32.1422 17.7123 31.9128C17.7123 31.6248 17.7843 31.3982 17.9283 31.2328C18.0776 31.0622 18.3203 30.9422 18.6563 30.8728C18.9976 30.7982 19.4563 30.7608 20.0323 30.7608H20.4083V31.2568H20.0403C19.6563 31.2568 19.3523 31.2755 19.1283 31.3128C18.9043 31.3502 18.7443 31.4142 18.6483 31.5048C18.5576 31.5902 18.5123 31.7102 18.5123 31.8648C18.5123 32.0675 18.5816 32.2328 18.7203 32.3608C18.859 32.4835 19.051 32.5448 19.2963 32.5448C19.4936 32.5448 19.667 32.4995 19.8163 32.4088C19.9656 32.3128 20.083 32.1848 20.1683 32.0248C20.259 31.8648 20.3043 31.6808 20.3043 31.4728V30.5528C20.3043 30.2488 20.2403 30.0302 20.1123 29.8968C19.9843 29.7635 19.7736 29.6968 19.4803 29.6968C19.3096 29.6968 19.131 29.7182 18.9443 29.7608C18.763 29.8035 18.5736 29.8755 18.3763 29.9768C18.2856 30.0195 18.2083 30.0328 18.1443 30.0168C18.0803 30.0008 18.0296 29.9662 17.9923 29.9128C17.955 29.8542 17.9336 29.7928 17.9283 29.7288C17.9283 29.6595 17.9443 29.5928 17.9763 29.5288C18.0136 29.4648 18.075 29.4168 18.1603 29.3848C18.395 29.2728 18.627 29.1928 18.8563 29.1448C19.0856 29.0968 19.3016 29.0728 19.5043 29.0728C19.8616 29.0728 20.155 29.1288 20.3843 29.2408C20.619 29.3528 20.7923 29.5235 20.9043 29.7528C21.0163 29.9822 21.0723 30.2782 21.0723 30.6408V32.6968C21.0723 32.8248 21.0403 32.9262 20.9763 33.0008C20.9123 33.0702 20.819 33.1048 20.6963 33.1048C20.579 33.1048 20.4856 33.0702 20.4163 33.0008C20.347 32.9262 20.3123 32.8248 20.3123 32.6968V32.1768H20.3843C20.3416 32.3742 20.2616 32.5448 20.1443 32.6888C20.0323 32.8275 19.891 32.9342 19.7203 33.0088C19.5496 33.0835 19.355 33.1208 19.1363 33.1208ZM22.5852 33.1048C22.4572 33.1048 22.3585 33.0702 22.2892 33.0008C22.2199 32.9262 22.1852 32.8248 22.1852 32.6968V29.4968C22.1852 29.3635 22.2199 29.2622 22.2892 29.1928C22.3585 29.1235 22.4545 29.0888 22.5772 29.0888C22.7052 29.0888 22.8012 29.1235 22.8652 29.1928C22.9345 29.2622 22.9692 29.3635 22.9692 29.4968V30.1208L22.8812 29.9768C22.9985 29.6782 23.1825 29.4542 23.4332 29.3048C23.6839 29.1502 23.9719 29.0728 24.2972 29.0728C24.6065 29.0728 24.8625 29.1315 25.0652 29.2488C25.2732 29.3608 25.4279 29.5342 25.5292 29.7688C25.6305 29.9982 25.6812 30.2888 25.6812 30.6408V32.6968C25.6812 32.8248 25.6465 32.9262 25.5772 33.0008C25.5079 33.0702 25.4092 33.1048 25.2812 33.1048C25.1479 33.1048 25.0465 33.0702 24.9772 33.0008C24.9079 32.9262 24.8732 32.8248 24.8732 32.6968V30.6888C24.8732 30.3528 24.8065 30.1075 24.6732 29.9528C24.5452 29.7982 24.3425 29.7208 24.0652 29.7208C23.7399 29.7208 23.4785 29.8222 23.2812 30.0248C23.0892 30.2275 22.9932 30.4995 22.9932 30.8408V32.6968C22.9932 32.9688 22.8572 33.1048 22.5852 33.1048ZM28.5146 33.1208C28.1146 33.1208 27.7679 33.0382 27.4746 32.8728C27.1866 32.7022 26.9626 32.4648 26.8026 32.1608C26.6426 31.8515 26.5626 31.4888 26.5626 31.0728C26.5626 30.7635 26.6079 30.4862 26.6986 30.2408C26.7892 29.9902 26.9172 29.7795 27.0826 29.6088C27.2532 29.4382 27.4586 29.3075 27.6986 29.2168C27.9439 29.1208 28.2159 29.0728 28.5146 29.0728C28.7012 29.0728 28.8959 29.1022 29.0986 29.1608C29.3066 29.2142 29.4986 29.3048 29.6746 29.4328C29.7439 29.4755 29.7866 29.5288 29.8026 29.5928C29.8239 29.6515 29.8266 29.7128 29.8106 29.7768C29.7999 29.8408 29.7706 29.8968 29.7226 29.9448C29.6799 29.9875 29.6266 30.0142 29.5626 30.0248C29.4986 30.0302 29.4292 30.0115 29.3546 29.9688C29.2266 29.8782 29.0959 29.8142 28.9626 29.7768C28.8292 29.7342 28.7012 29.7128 28.5786 29.7128C28.3866 29.7128 28.2159 29.7448 28.0666 29.8088C27.9226 29.8675 27.7999 29.9555 27.6986 30.0728C27.5972 30.1848 27.5199 30.3262 27.4666 30.4968C27.4186 30.6675 27.3946 30.8622 27.3946 31.0808C27.3946 31.5182 27.4959 31.8622 27.6986 32.1128C27.9066 32.3582 28.1999 32.4808 28.5786 32.4808C28.7012 32.4808 28.8292 32.4622 28.9626 32.4248C29.0959 32.3875 29.2266 32.3235 29.3546 32.2328C29.4292 32.1902 29.4986 32.1742 29.5626 32.1848C29.6266 32.1955 29.6772 32.2248 29.7146 32.2728C29.7572 32.3155 29.7839 32.3688 29.7946 32.4328C29.8106 32.4915 29.8079 32.5528 29.7866 32.6168C29.7652 32.6808 29.7199 32.7342 29.6506 32.7768C29.4799 32.8995 29.2932 32.9875 29.0906 33.0408C28.8932 33.0942 28.7012 33.1208 28.5146 33.1208ZM28.4906 34.6008C28.3946 34.6008 28.2906 34.5928 28.1786 34.5768C28.0719 34.5608 27.9759 34.5368 27.8906 34.5048C27.8212 34.4782 27.7732 34.4382 27.7466 34.3848C27.7252 34.3315 27.7226 34.2782 27.7386 34.2248C27.7546 34.1715 27.7866 34.1288 27.8346 34.0968C27.8879 34.0702 27.9492 34.0728 28.0186 34.1048C28.0826 34.1262 28.1492 34.1422 28.2186 34.1528C28.2879 34.1635 28.3626 34.1688 28.4426 34.1688C28.5812 34.1688 28.6906 34.1448 28.7706 34.0968C28.8559 34.0542 28.8986 33.9902 28.8986 33.9048C28.8986 33.8408 28.8746 33.7902 28.8266 33.7528C28.7786 33.7155 28.7012 33.6968 28.5946 33.6968C28.5572 33.6968 28.5172 33.6968 28.4746 33.6968C28.4319 33.7022 28.3866 33.7128 28.3386 33.7288C28.3012 33.7395 28.2666 33.7448 28.2346 33.7448C28.2079 33.7448 28.1812 33.7342 28.1546 33.7128C28.1332 33.6915 28.1199 33.6648 28.1146 33.6328C28.1092 33.6008 28.1092 33.5608 28.1146 33.5128L28.2106 32.8888H28.6746L28.5706 33.4968L28.3466 33.4248C28.4106 33.4088 28.4746 33.3955 28.5386 33.3848C28.6026 33.3742 28.6612 33.3688 28.7146 33.3688C28.9226 33.3688 29.0906 33.4168 29.2186 33.5128C29.3466 33.6088 29.4106 33.7475 29.4106 33.9288C29.4106 34.1262 29.3252 34.2862 29.1546 34.4088C28.9839 34.5368 28.7626 34.6008 28.4906 34.6008ZM31.7457 33.1208C31.4737 33.1208 31.2284 33.0675 31.0097 32.9608C30.7964 32.8542 30.6284 32.7102 30.5057 32.5288C30.383 32.3475 30.3217 32.1422 30.3217 31.9128C30.3217 31.6248 30.3937 31.3982 30.5377 31.2328C30.687 31.0622 30.9297 30.9422 31.2657 30.8728C31.607 30.7982 32.0657 30.7608 32.6417 30.7608H33.0177V31.2568H32.6497C32.2657 31.2568 31.9617 31.2755 31.7377 31.3128C31.5137 31.3502 31.3537 31.4142 31.2577 31.5048C31.167 31.5902 31.1217 31.7102 31.1217 31.8648C31.1217 32.0675 31.191 32.2328 31.3297 32.3608C31.4684 32.4835 31.6604 32.5448 31.9057 32.5448C32.103 32.5448 32.2764 32.4995 32.4257 32.4088C32.575 32.3128 32.6924 32.1848 32.7777 32.0248C32.8684 31.8648 32.9137 31.6808 32.9137 31.4728V30.5528C32.9137 30.2488 32.8497 30.0302 32.7217 29.8968C32.5937 29.7635 32.383 29.6968 32.0897 29.6968C31.919 29.6968 31.7404 29.7182 31.5537 29.7608C31.3724 29.8035 31.183 29.8755 30.9857 29.9768C30.895 30.0195 30.8177 30.0328 30.7537 30.0168C30.6897 30.0008 30.639 29.9662 30.6017 29.9128C30.5644 29.8542 30.543 29.7928 30.5377 29.7288C30.5377 29.6595 30.5537 29.5928 30.5857 29.5288C30.623 29.4648 30.6844 29.4168 30.7697 29.3848C31.0044 29.2728 31.2364 29.1928 31.4657 29.1448C31.695 29.0968 31.911 29.0728 32.1137 29.0728C32.471 29.0728 32.7644 29.1288 32.9937 29.2408C33.2284 29.3528 33.4017 29.5235 33.5137 29.7528C33.6257 29.9822 33.6817 30.2782 33.6817 30.6408V32.6968C33.6817 32.8248 33.6497 32.9262 33.5857 33.0008C33.5217 33.0702 33.4284 33.1048 33.3057 33.1048C33.1884 33.1048 33.095 33.0702 33.0257 33.0008C32.9564 32.9262 32.9217 32.8248 32.9217 32.6968V32.1768H32.9937C32.951 32.3742 32.871 32.5448 32.7537 32.6888C32.6417 32.8275 32.5004 32.9342 32.3297 33.0088C32.159 33.0835 31.9644 33.1208 31.7457 33.1208Z" fill="#DA0175"/>
</svg>
