<svg width="23" height="20" viewBox="0 0 23 20" fill="none" xmlns="http://www.w3.org/2000/svg">
<path d="M11.2039 4.84961C13.9639 4.84961 16.2039 7.08961 16.2039 9.84961C16.2039 10.4996 16.0739 11.1096 15.8439 11.6796L18.7639 14.5996C20.2739 13.3396 21.4639 11.7096 22.1939 9.84961C20.4639 5.45961 16.1939 2.34961 11.1939 2.34961C9.79386 2.34961 8.45386 2.59961 7.21386 3.04961L9.37386 5.20961C9.94386 4.97961 10.5539 4.84961 11.2039 4.84961ZM1.20386 2.11961L3.48386 4.39961L3.94386 4.85961C2.28386 6.14961 0.983857 7.86961 0.203857 9.84961C1.93386 14.2396 6.20386 17.3496 11.2039 17.3496C12.7539 17.3496 14.2339 17.0496 15.5839 16.5096L16.0039 16.9296L18.9339 19.8496L20.2039 18.5796L2.47386 0.849609L1.20386 2.11961ZM6.73386 7.64961L8.28386 9.19961C8.23386 9.40961 8.20386 9.62961 8.20386 9.84961C8.20386 11.5096 9.54386 12.8496 11.2039 12.8496C11.4239 12.8496 11.6439 12.8196 11.8539 12.7696L13.4039 14.3196C12.7339 14.6496 11.9939 14.8496 11.2039 14.8496C8.44386 14.8496 6.20386 12.6096 6.20386 9.84961C6.20386 9.05961 6.40386 8.31961 6.73386 7.64961ZM11.0439 6.86961L14.1939 10.0196L14.2139 9.85961C14.2139 8.19961 12.8739 6.85961 11.2139 6.85961L11.0439 6.86961Z" fill="black" fill-opacity="0.54"/>
</svg>