<svg width="23" height="16" viewBox="0 0 23 16" fill="none" xmlns="http://www.w3.org/2000/svg">
<path d="M11.5133 0.349609C6.51331 0.349609 2.24331 3.45961 0.513306 7.84961C2.24331 12.2396 6.51331 15.3496 11.5133 15.3496C16.5133 15.3496 20.7833 12.2396 22.5133 7.84961C20.7833 3.45961 16.5133 0.349609 11.5133 0.349609ZM11.5133 12.8496C8.75331 12.8496 6.51331 10.6096 6.51331 7.84961C6.51331 5.08961 8.75331 2.84961 11.5133 2.84961C14.2733 2.84961 16.5133 5.08961 16.5133 7.84961C16.5133 10.6096 14.2733 12.8496 11.5133 12.8496ZM11.5133 4.84961C9.85331 4.84961 8.51331 6.18961 8.51331 7.84961C8.51331 9.50961 9.85331 10.8496 11.5133 10.8496C13.1733 10.8496 14.5133 9.50961 14.5133 7.84961C14.5133 6.18961 13.1733 4.84961 11.5133 4.84961Z" fill="black" fill-opacity="0.54"/>
</svg>
